<?xml version="1.0" encoding="UTF-8"?>
<!DOCTYPE svg PUBLIC "-//W3C//DTD SVG 1.1//EN" "http://www.w3.org/Graphics/SVG/1.1/DTD/svg11.dtd">
<svg xmlns="http://www.w3.org/2000/svg" version="1.1" width="440px" height="442px" style="shape-rendering:geometricPrecision; text-rendering:geometricPrecision; image-rendering:optimizeQuality; fill-rule:evenodd; clip-rule:evenodd" xmlns:xlink="http://www.w3.org/1999/xlink">
<g><path style="opacity:0.004" fill="#fefffe" d="M 352.5,0.5 C 353.833,1.16667 353.833,1.16667 352.5,0.5 Z"/></g>
<g><path style="opacity:0.004" fill="#fefffe" d="M 70.5,4.5 C 71.8333,5.16667 71.8333,5.16667 70.5,4.5 Z"/></g>
<g><path style="opacity:0.004" fill="#fefffe" d="M 24.5,5.5 C 25.8333,6.16667 25.8333,6.16667 24.5,5.5 Z"/></g>
<g><path style="opacity:0.004" fill="#fefffe" d="M 127.5,11.5 C 128.833,12.1667 128.833,12.1667 127.5,11.5 Z"/></g>
<g><path style="opacity:0.004" fill="#fefffe" d="M 374.5,14.5 C 375.833,15.1667 375.833,15.1667 374.5,14.5 Z"/></g>
<g><path style="opacity:0.004" fill="#fefffe" d="M 32.5,15.5 C 33.8333,16.1667 33.8333,16.1667 32.5,15.5 Z"/></g>
<g><path style="opacity:0.004" fill="#fefffe" d="M 320.5,25.5 C 321.833,26.1667 321.833,26.1667 320.5,25.5 Z"/></g>
<g><path style="opacity:0.004" fill="#fefffe" d="M 137.5,27.5 C 138.833,28.1667 138.833,28.1667 137.5,27.5 Z"/></g>
<g><path style="opacity:0.373" fill="#bea9cb" d="M 210.5,29.5 C 213.146,28.8356 215.979,28.5022 219,28.5C 224.079,28.4055 228.912,29.0722 233.5,30.5C 225.846,29.9295 218.179,29.5962 210.5,29.5 Z"/></g>
<g><path style="opacity:0.729" fill="#a991bb" d="M 209.5,29.5 C 208.167,30.1667 206.833,30.8333 205.5,31.5C 204.167,31.5 202.833,31.5 201.5,31.5C 203.838,29.9605 206.505,29.2938 209.5,29.5 Z"/></g>
<g><path style="opacity:1" fill="#6d3b91" d="M 209.5,29.5 C 209.833,29.5 210.167,29.5 210.5,29.5C 218.179,29.5962 225.846,29.9295 233.5,30.5C 236.152,30.4095 238.485,31.0762 240.5,32.5C 228.857,30.7678 217.19,30.4345 205.5,31.5C 206.833,30.8333 208.167,30.1667 209.5,29.5 Z"/></g>
<g><path style="opacity:0.004" fill="#fefffe" d="M 309.5,30.5 C 310.833,31.1667 310.833,31.1667 309.5,30.5 Z"/></g>
<g><path style="opacity:1" fill="#7518b3" d="M 240.5,32.5 C 240.577,33.7498 241.244,34.5831 242.5,35C 245.368,36.383 248.368,37.2163 251.5,37.5C 253.971,42.2779 257.971,44.6112 263.5,44.5C 263.281,45.675 263.614,46.675 264.5,47.5C 268.096,49.1358 271.762,50.4692 275.5,51.5C 275.833,51.5 276.167,51.5 276.5,51.5C 277.035,53.4456 278.368,54.4456 280.5,54.5C 281.492,54.3284 282.158,54.6618 282.5,55.5C 283.348,57.0931 284.681,58.2597 286.5,59C 287.448,59.4828 288.448,59.6495 289.5,59.5C 289.833,59.5 290.167,59.5 290.5,59.5C 291.909,61.4169 293.576,63.2502 295.5,65C 300.652,66.8197 305.319,69.4863 309.5,73C 311.134,73.4935 312.801,73.6602 314.5,73.5C 314.721,74.7348 315.388,75.7348 316.5,76.5C 319.665,78.0636 322.665,79.7303 325.5,81.5C 328.373,84.7734 332.04,86.7734 336.5,87.5C 336.343,88.8734 336.51,90.2068 337,91.5C 340.031,90.7334 342.864,91.4001 345.5,93.5C 348.257,95.0857 351.257,96.0857 354.5,96.5C 355.492,96.3284 356.158,96.6618 356.5,97.5C 356.821,99.0481 357.821,99.7148 359.5,99.5C 359.414,100.496 359.748,101.329 360.5,102C 363.279,103.722 366.279,104.889 369.5,105.5C 370.699,108.692 373.032,110.359 376.5,110.5C 376.833,110.5 377.167,110.5 377.5,110.5C 378.523,112.846 379.523,115.179 380.5,117.5C 381.552,117.351 382.552,117.517 383.5,118C 385.301,120.064 387.301,121.898 389.5,123.5C 389.427,125.027 390.094,126.027 391.5,126.5C 391.216,129.857 392.549,132.191 395.5,133.5C 395.624,138.289 396.458,142.955 398,147.5C 398.5,200.166 398.667,252.832 398.5,305.5C 396.543,311.996 394.876,318.662 393.5,325.5C 391.952,325.821 391.285,326.821 391.5,328.5C 391.573,330.027 390.906,331.027 389.5,331.5C 388.5,331.5 387.5,331.5 386.5,331.5C 386.5,332.5 386.5,333.5 386.5,334.5C 382.676,334.735 380.676,336.735 380.5,340.5C 379.167,340.5 377.833,340.5 376.5,340.5C 376.5,341.833 376.5,343.167 376.5,344.5C 376.5,345.167 376.167,345.5 375.5,345.5C 372.088,346.013 368.755,346.847 365.5,348C 365.786,349.388 365.452,350.888 364.5,352.5C 358.97,354.759 353.303,356.759 347.5,358.5C 347.169,360.322 346.502,361.989 345.5,363.5C 341.673,363.752 338.34,365.085 335.5,367.5C 333.459,367.854 331.626,367.854 330,367.5C 329.517,368.448 329.351,369.448 329.5,370.5C 327.176,370.662 325.509,371.828 324.5,374C 323.207,374.49 321.873,374.657 320.5,374.5C 320.5,375.5 320.5,376.5 320.5,377.5C 313.822,380.506 307.156,383.506 300.5,386.5C 300.5,387.5 300.5,388.5 300.5,389.5C 300.158,390.338 299.492,390.672 298.5,390.5C 296.396,390.201 294.396,390.534 292.5,391.5C 290.53,392.961 288.863,394.627 287.5,396.5C 284.229,396.354 281.895,397.688 280.5,400.5C 277.966,400.259 276.3,401.259 275.5,403.5C 273.011,403.241 271.344,404.241 270.5,406.5C 270.158,407.338 269.492,407.672 268.5,407.5C 265.361,407.599 263.027,408.932 261.5,411.5C 257.882,411.707 254.548,412.707 251.5,414.5C 251.5,415.5 251.5,416.5 251.5,417.5C 250.07,418.537 248.403,419.204 246.5,419.5C 244.821,419.285 243.821,419.952 243.5,421.5C 243.167,421.5 242.833,421.5 242.5,421.5C 238.681,421.414 235.015,422.081 231.5,423.5C 222.833,424.833 214.167,424.833 205.5,423.5C 203.784,423.371 202.117,423.038 200.5,422.5C 197.282,420.547 193.949,418.547 190.5,416.5C 188.547,415.844 186.547,415.511 184.5,415.5C 183.656,413.241 181.989,412.241 179.5,412.5C 178.952,409.916 177.285,408.916 174.5,409.5C 173.191,406.549 170.857,405.216 167.5,405.5C 166.826,403.976 165.826,402.642 164.5,401.5C 162.096,400.65 159.763,399.65 157.5,398.5C 156.147,397.476 155.48,396.143 155.5,394.5C 153.097,394.552 150.764,394.219 148.5,393.5C 148.33,392.178 148.663,391.011 149.5,390C 148.234,389.691 147.067,389.191 146,388.5C 143.25,389.291 140.417,389.291 137.5,388.5C 136.656,386.241 134.989,385.241 132.5,385.5C 131.952,382.916 130.285,381.916 127.5,382.5C 126.286,380.851 124.953,379.185 123.5,377.5C 119.434,376.121 115.434,374.788 111.5,373.5C 109.973,370.932 107.639,369.599 104.5,369.5C 102.699,365.91 99.699,363.743 95.5,363C 93.2149,359.412 89.8815,357.579 85.5,357.5C 84.8333,357.5 84.1667,357.5 83.5,357.5C 82.8262,355.976 81.8262,354.642 80.5,353.5C 76.5893,352.698 73.256,350.865 70.5,348C 69.2068,347.51 67.8734,347.343 66.5,347.5C 65.2562,343.588 62.5895,341.588 58.5,341.5C 57.5,341.167 56.8333,340.5 56.5,339.5C 54.5893,334.395 51.5893,329.895 47.5,326C 44.9919,320.639 42.9919,315.139 41.5,309.5C 40.3421,255.874 40.1754,202.208 41,148.5C 43.0617,142.438 45.2284,136.438 47.5,130.5C 50.0116,126.81 52.0116,122.81 53.5,118.5C 57.8618,117.165 61.1951,114.165 63.5,109.5C 65.4044,109.262 66.7377,108.262 67.5,106.5C 69.8477,106.408 71.5144,105.408 72.5,103.5C 75.8573,103.784 78.1906,102.451 79.5,99.5C 82.8573,99.7841 85.1906,98.4507 86.5,95.5C 89.8573,95.7841 92.1906,94.4507 93.5,91.5C 96.8573,91.7841 99.1906,90.4507 100.5,87.5C 103.857,87.7841 106.191,86.4507 107.5,83.5C 110.857,83.7841 113.191,82.4507 114.5,79.5C 117.857,79.7841 120.191,78.4507 121.5,75.5C 122.552,75.6495 123.552,75.4828 124.5,75C 126.319,74.2597 127.652,73.0931 128.5,71.5C 131.857,71.7841 134.191,70.4507 135.5,67.5C 136.167,67.5 136.833,67.5 137.5,67.5C 144.26,64.5846 150.927,61.4179 157.5,58C 160.124,55.2356 162.791,52.7356 165.5,50.5C 167.482,50.0046 169.482,49.5046 171.5,49C 180.037,43.9793 188.371,38.8127 196.5,33.5C 197.78,32.0687 199.447,31.4021 201.5,31.5C 202.833,31.5 204.167,31.5 205.5,31.5C 217.19,30.4345 228.857,30.7678 240.5,32.5 Z M 223.5,84.5 C 223.973,85.9063 224.973,86.573 226.5,86.5C 228.181,88.0075 230.181,89.0075 232.5,89.5C 232.973,90.9063 233.973,91.573 235.5,91.5C 236.514,92.6737 237.847,93.3404 239.5,93.5C 239.973,94.9063 240.973,95.573 242.5,95.5C 243.514,96.6737 244.847,97.3404 246.5,97.5C 246.973,98.9063 247.973,99.573 249.5,99.5C 250.514,100.674 251.847,101.34 253.5,101.5C 255.336,103.588 257.669,104.921 260.5,105.5C 260.973,106.906 261.973,107.573 263.5,107.5C 266.678,110.258 270.345,112.258 274.5,113.5C 276.336,115.588 278.669,116.921 281.5,117.5C 281.973,118.906 282.973,119.573 284.5,119.5C 285.514,120.674 286.847,121.34 288.5,121.5C 290.336,123.588 292.669,124.921 295.5,125.5C 295.973,126.906 296.973,127.573 298.5,127.5C 301.678,130.258 305.345,132.258 309.5,133.5C 311.336,135.588 313.669,136.921 316.5,137.5C 316.973,138.906 317.973,139.573 319.5,139.5C 320.514,140.674 321.847,141.34 323.5,141.5C 325.336,143.588 327.669,144.921 330.5,145.5C 332.336,147.588 334.669,148.921 337.5,149.5C 339.336,151.588 341.669,152.921 344.5,153.5C 344.709,154.922 345.209,156.255 346,157.5C 346.814,204.856 346.647,252.189 345.5,299.5C 343.809,300.864 342.142,302.197 340.5,303.5C 337.996,304.584 335.663,305.917 333.5,307.5C 331.326,307.75 329.659,308.75 328.5,310.5C 325.008,311.41 322.008,313.076 319.5,315.5C 316.669,316.079 314.336,317.412 312.5,319.5C 305.004,322.745 298.004,326.745 291.5,331.5C 288.669,332.079 286.336,333.412 284.5,335.5C 279.5,337.664 274.833,340.331 270.5,343.5C 268.326,343.75 266.659,344.75 265.5,346.5C 259.835,348.997 254.502,351.997 249.5,355.5C 247.326,355.75 245.659,356.75 244.5,358.5C 239.5,360.664 234.833,363.331 230.5,366.5C 229.508,366.328 228.842,366.662 228.5,367.5C 224.861,369.709 220.861,370.709 216.5,370.5C 211.167,367.5 205.833,364.5 200.5,361.5C 199.71,360.599 198.71,359.932 197.5,359.5C 197.167,359.5 196.833,359.5 196.5,359.5C 189.996,354.745 182.996,350.745 175.5,347.5C 174.486,346.326 173.153,345.66 171.5,345.5C 166.335,341.414 160.668,338.08 154.5,335.5C 152.537,334.18 150.537,332.846 148.5,331.5C 148.167,331.5 147.833,331.5 147.5,331.5C 145.664,329.412 143.331,328.079 140.5,327.5C 138.664,325.412 136.331,324.079 133.5,323.5C 132.71,322.599 131.71,321.932 130.5,321.5C 130.167,321.5 129.833,321.5 129.5,321.5C 127.054,318.769 124.054,316.769 120.5,315.5C 120.167,315.5 119.833,315.5 119.5,315.5C 113.201,311.012 106.534,307.012 99.5,303.5C 99.1667,303.5 98.8333,303.5 98.5,303.5C 96.8577,302.197 95.1911,300.864 93.5,299.5C 92.1667,251.5 92.1667,203.5 93.5,155.5C 98.7089,152.402 103.709,149.068 108.5,145.5C 108.833,145.5 109.167,145.5 109.5,145.5C 112.54,144.32 115.206,142.653 117.5,140.5C 118.492,140.672 119.158,140.338 119.5,139.5C 121.674,139.25 123.341,138.25 124.5,136.5C 130.165,134.003 135.498,131.003 140.5,127.5C 147.996,124.255 154.996,120.255 161.5,115.5C 170.501,111.002 179.168,106.002 187.5,100.5C 190.992,99.5903 193.992,97.9236 196.5,95.5C 197.492,95.6716 198.158,95.3382 198.5,94.5C 205.231,90.7165 212.065,87.0498 219,83.5C 220.356,84.3802 221.856,84.7135 223.5,84.5 Z"/></g>
<g><path style="opacity:0.776" fill="#9974b2" d="M 240.5,32.5 C 244.497,33.6027 248.164,35.2694 251.5,37.5C 248.368,37.2163 245.368,36.383 242.5,35C 241.244,34.5831 240.577,33.7498 240.5,32.5 Z"/></g>
<g><path style="opacity:0.004" fill="#fefffe" d="M 151.5,34.5 C 152.833,35.1667 152.833,35.1667 151.5,34.5 Z"/></g>
<g><path style="opacity:0.004" fill="#fefffe" d="M 173.5,37.5 C 174.833,38.1667 174.833,38.1667 173.5,37.5 Z"/></g>
<g><path style="opacity:0.004" fill="#fefffe" d="M 161.5,40.5 C 162.833,41.1667 162.833,41.1667 161.5,40.5 Z"/></g>
<g><path style="opacity:1" fill="#795091" d="M 196.5,33.5 C 188.371,38.8127 180.037,43.9793 171.5,49C 169.482,49.5046 167.482,50.0046 165.5,50.5C 175.087,43.6039 185.421,37.9373 196.5,33.5 Z"/></g>
<g><path style="opacity:1" fill="#895fa0" d="M 251.5,37.5 C 255.864,39.3437 259.864,41.677 263.5,44.5C 257.971,44.6112 253.971,42.2779 251.5,37.5 Z"/></g>
<g><path style="opacity:0.004" fill="#fefffe" d="M 346.5,41.5 C 347.833,42.1667 347.833,42.1667 346.5,41.5 Z"/></g>
<g><path style="opacity:1" fill="#824e9c" d="M 263.5,44.5 C 267.864,46.3437 271.864,48.677 275.5,51.5C 271.762,50.4692 268.096,49.1358 264.5,47.5C 263.614,46.675 263.281,45.675 263.5,44.5 Z"/></g>
<g><path style="opacity:0.824" fill="#a78abb" d="M 276.5,51.5 C 278.23,52.0256 279.564,53.0256 280.5,54.5C 278.368,54.4456 277.035,53.4456 276.5,51.5 Z"/></g>
<g><path style="opacity:0.675" fill="#b299c3" d="M 159.5,53.5 C 159.027,54.9063 158.027,55.573 156.5,55.5C 156.973,54.0937 157.973,53.427 159.5,53.5 Z"/></g>
<g><path style="opacity:0.004" fill="#fefffe" d="M 122.5,56.5 C 123.833,57.1667 123.833,57.1667 122.5,56.5 Z"/></g>
<g><path style="opacity:1" fill="#9a7ca9" d="M 282.5,55.5 C 285.331,56.0787 287.664,57.412 289.5,59.5C 288.448,59.6495 287.448,59.4828 286.5,59C 284.681,58.2597 283.348,57.0931 282.5,55.5 Z"/></g>
<g><path style="opacity:1" fill="#734296" d="M 165.5,50.5 C 162.791,52.7356 160.124,55.2356 157.5,58C 150.927,61.4179 144.26,64.5846 137.5,67.5C 137.833,66.8333 138.167,66.1667 138.5,65.5C 144.17,61.663 150.17,58.3296 156.5,55.5C 158.027,55.573 159.027,54.9063 159.5,53.5C 161.181,51.9925 163.181,50.9925 165.5,50.5 Z"/></g>
<g><path style="opacity:0.004" fill="#fefffe" d="M 97.5,64.5 C 98.8333,65.1667 98.8333,65.1667 97.5,64.5 Z"/></g>
<g><path style="opacity:0.004" fill="#fefffe" d="M 23.5,65.5 C 24.8333,66.1667 24.8333,66.1667 23.5,65.5 Z"/></g>
<g><path style="opacity:0.69" fill="#a291b6" d="M 138.5,65.5 C 138.167,66.1667 137.833,66.8333 137.5,67.5C 136.833,67.5 136.167,67.5 135.5,67.5C 135.973,66.0937 136.973,65.427 138.5,65.5 Z"/></g>
<g><path style="opacity:1" fill="#865ca1" d="M 290.5,59.5 C 298.535,64.1816 306.535,68.8483 314.5,73.5C 312.801,73.6602 311.134,73.4935 309.5,73C 305.319,69.4863 300.652,66.8197 295.5,65C 293.576,63.2502 291.909,61.4169 290.5,59.5 Z"/></g>
<g><path style="opacity:1" fill="#7e509b" d="M 135.5,67.5 C 134.191,70.4507 131.857,71.7841 128.5,71.5C 130.336,69.412 132.669,68.0787 135.5,67.5 Z"/></g>
<g><path style="opacity:1" fill="#8e649f" d="M 128.5,71.5 C 127.652,73.0931 126.319,74.2597 124.5,75C 123.552,75.4828 122.552,75.6495 121.5,75.5C 123.336,73.412 125.669,72.0787 128.5,71.5 Z"/></g>
<g><path style="opacity:0.004" fill="#fefffe" d="M 70.5,75.5 C 71.8333,76.1667 71.8333,76.1667 70.5,75.5 Z"/></g>
<g><path style="opacity:1" fill="#80519e" d="M 121.5,75.5 C 120.191,78.4507 117.857,79.7841 114.5,79.5C 116.336,77.412 118.669,76.0787 121.5,75.5 Z"/></g>
<g><path style="opacity:1" fill="#906cab" d="M 314.5,73.5 C 319.446,75.8026 324.113,78.4693 328.5,81.5C 327.5,81.5 326.5,81.5 325.5,81.5C 322.665,79.7303 319.665,78.0636 316.5,76.5C 315.388,75.7348 314.721,74.7348 314.5,73.5 Z"/></g>
<g><path style="opacity:1" fill="#7b4f98" d="M 114.5,79.5 C 113.191,82.4507 110.857,83.7841 107.5,83.5C 109.336,81.412 111.669,80.0787 114.5,79.5 Z"/></g>
<g><path style="opacity:0.863" fill="#98749d" d="M 328.5,81.5 C 329.71,81.9321 330.71,82.5987 331.5,83.5C 329.821,83.7148 328.821,83.0481 328.5,81.5 Z"/></g>
<g><path style="opacity:0.784" fill="#a281b2" d="M 331.5,83.5 C 333.153,83.6596 334.486,84.3263 335.5,85.5C 333.517,85.8432 332.183,85.1765 331.5,83.5 Z"/></g>
<g><path style="opacity:0.49" fill="#b899c1" d="M 223.5,84.5 C 225.027,84.427 226.027,85.0937 226.5,86.5C 224.973,86.573 223.973,85.9063 223.5,84.5 Z"/></g>
<g><path style="opacity:1" fill="#7d4f9e" d="M 107.5,83.5 C 106.191,86.4507 103.857,87.7841 100.5,87.5C 102.336,85.412 104.669,84.0787 107.5,83.5 Z"/></g>
<g><path style="opacity:1" fill="#8955a7" d="M 223.5,84.5 C 221.856,84.7135 220.356,84.3802 219,83.5C 212.065,87.0498 205.231,90.7165 198.5,94.5C 199.974,91.7515 201.974,89.4182 204.5,87.5C 208.61,87.0407 212.277,85.5407 215.5,83C 218.538,82.115 221.205,82.615 223.5,84.5 Z"/></g>
<g><path style="opacity:0.804" fill="#a488b4" d="M 339.5,87.5 C 341.23,88.0256 342.564,89.0256 343.5,90.5C 341.368,90.4456 340.035,89.4456 339.5,87.5 Z"/></g>
<g><path style="opacity:1" fill="#83529b" d="M 100.5,87.5 C 99.1906,90.4507 96.8573,91.7841 93.5,91.5C 95.3356,89.412 97.6689,88.0787 100.5,87.5 Z"/></g>
<g><path style="opacity:0.518" fill="#a589b9" d="M 232.5,89.5 C 233.167,89.5 233.833,89.5 234.5,89.5C 234.833,90.1667 235.167,90.8333 235.5,91.5C 233.973,91.573 232.973,90.9063 232.5,89.5 Z"/></g>
<g><path style="opacity:1" fill="#77379e" d="M 234.5,89.5 C 235.873,89.3433 237.207,89.51 238.5,90C 241.838,93.4311 245.838,95.9311 250.5,97.5C 251.826,98.6422 252.826,99.9755 253.5,101.5C 251.847,101.34 250.514,100.674 249.5,99.5C 249.027,98.0937 248.027,97.427 246.5,97.5C 244.847,97.3404 243.514,96.6737 242.5,95.5C 242.027,94.0937 241.027,93.427 239.5,93.5C 237.847,93.3404 236.514,92.6737 235.5,91.5C 235.167,90.8333 234.833,90.1667 234.5,89.5 Z"/></g>
<g><path style="opacity:1" fill="#71319c" d="M 325.5,81.5 C 326.5,81.5 327.5,81.5 328.5,81.5C 328.821,83.0481 329.821,83.7148 331.5,83.5C 332.183,85.1765 333.517,85.8432 335.5,85.5C 336.833,86.1667 338.167,86.8333 339.5,87.5C 340.035,89.4456 341.368,90.4456 343.5,90.5C 344.492,90.3284 345.158,90.6618 345.5,91.5C 345.5,92.1667 345.5,92.8333 345.5,93.5C 342.864,91.4001 340.031,90.7334 337,91.5C 336.51,90.2068 336.343,88.8734 336.5,87.5C 332.04,86.7734 328.373,84.7734 325.5,81.5 Z"/></g>
<g><path style="opacity:0.004" fill="#fefffe" d="M 358.5,90.5 C 359.833,91.1667 359.833,91.1667 358.5,90.5 Z"/></g>
<g><path style="opacity:0.773" fill="#9069a7" d="M 345.5,91.5 C 348.76,92.7738 351.76,94.4405 354.5,96.5C 351.257,96.0857 348.257,95.0857 345.5,93.5C 345.5,92.8333 345.5,92.1667 345.5,91.5 Z"/></g>
<g><path style="opacity:1" fill="#7a4c99" d="M 93.5,91.5 C 92.1906,94.4507 89.8573,95.7841 86.5,95.5C 88.3356,93.412 90.6689,92.0787 93.5,91.5 Z"/></g>
<g><path style="opacity:0.549" fill="#a988bc" d="M 239.5,93.5 C 241.027,93.427 242.027,94.0937 242.5,95.5C 240.973,95.573 239.973,94.9063 239.5,93.5 Z"/></g>
<g><path style="opacity:1" fill="#8a5eaa" d="M 196.5,95.5 C 193.992,97.9236 190.992,99.5903 187.5,100.5C 189.491,97.2057 192.491,95.5391 196.5,95.5 Z"/></g>
<g><path style="opacity:1" fill="#7c4f97" d="M 86.5,95.5 C 85.1906,98.4507 82.8573,99.7841 79.5,99.5C 81.3356,97.412 83.6689,96.0787 86.5,95.5 Z"/></g>
<g><path style="opacity:0.592" fill="#9e7cb8" d="M 246.5,97.5 C 248.027,97.427 249.027,98.0937 249.5,99.5C 247.973,99.573 246.973,98.9063 246.5,97.5 Z"/></g>
<g><path style="opacity:1" fill="#9170a9" d="M 356.5,97.5 C 357.71,97.9321 358.71,98.5987 359.5,99.5C 357.821,99.7148 356.821,99.0481 356.5,97.5 Z"/></g>
<g><path style="opacity:1" fill="#7629a9" d="M 274.5,113.5 C 270.345,112.258 266.678,110.258 263.5,107.5C 263.027,106.094 262.027,105.427 260.5,105.5C 260.5,105.167 260.5,104.833 260.5,104.5C 262.288,104.785 263.955,104.452 265.5,103.5C 263.539,102.152 263.372,100.819 265,99.5C 267.369,100.86 269.536,102.526 271.5,104.5C 270.224,105.645 268.891,105.645 267.5,104.5C 266.5,104.833 265.833,105.5 265.5,106.5C 268.388,108.111 271.388,109.444 274.5,110.5C 274.5,111.5 274.5,112.5 274.5,113.5 Z"/></g>
<g><path style="opacity:1" fill="#80539b" d="M 253.5,101.5 C 256.481,101.182 258.815,102.182 260.5,104.5C 260.5,104.833 260.5,105.167 260.5,105.5C 257.669,104.921 255.336,103.588 253.5,101.5 Z"/></g>
<g><path style="opacity:1" fill="#8e60a7" d="M 359.5,99.5 C 363.173,101 366.506,103 369.5,105.5C 366.279,104.889 363.279,103.722 360.5,102C 359.748,101.329 359.414,100.496 359.5,99.5 Z"/></g>
<g><path style="opacity:1" fill="#7b529c" d="M 79.5,99.5 C 78.1906,102.451 75.8573,103.784 72.5,103.5C 74.3356,101.412 76.6689,100.079 79.5,99.5 Z"/></g>
<g><path style="opacity:0.769" fill="#9a73b3" d="M 72.5,103.5 C 71.5144,105.408 69.8477,106.408 67.5,106.5C 68.6594,104.75 70.326,103.75 72.5,103.5 Z"/></g>
<g><path style="opacity:0.004" fill="#fefffe" d="M 416.5,105.5 C 417.833,106.167 417.833,106.167 416.5,105.5 Z"/></g>
<g><path style="opacity:0.49" fill="#a288b1" d="M 260.5,105.5 C 262.027,105.427 263.027,106.094 263.5,107.5C 261.973,107.573 260.973,106.906 260.5,105.5 Z"/></g>
<g><path style="opacity:0.741" fill="#9d81b7" d="M 67.5,106.5 C 66.7377,108.262 65.4044,109.262 63.5,109.5C 64.2623,107.738 65.5956,106.738 67.5,106.5 Z"/></g>
<g><path style="opacity:1" fill="#8554a7" d="M 369.5,105.5 C 372.37,106.433 374.704,108.1 376.5,110.5C 373.032,110.359 370.699,108.692 369.5,105.5 Z"/></g>
<g><path style="opacity:0.847" fill="#8c5ca6" d="M 187.5,100.5 C 179.168,106.002 170.501,111.002 161.5,115.5C 161.414,114.504 161.748,113.671 162.5,113C 165.255,111.047 168.255,109.88 171.5,109.5C 171.5,108.5 171.5,107.5 171.5,106.5C 175.203,105.707 178.536,104.04 181.5,101.5C 183.396,100.534 185.396,100.201 187.5,100.5 Z"/></g>
<g><path style="opacity:0.004" fill="#fefffe" d="M 403.5,113.5 C 404.833,114.167 404.833,114.167 403.5,113.5 Z"/></g>
<g><path style="opacity:1" fill="#7d509b" d="M 274.5,113.5 C 277.857,113.216 280.191,114.549 281.5,117.5C 278.669,116.921 276.336,115.588 274.5,113.5 Z"/></g>
<g><path style="opacity:1" fill="#7f4e9e" d="M 63.5,109.5 C 61.1951,114.165 57.8618,117.165 53.5,118.5C 55.9547,114.593 59.288,111.593 63.5,109.5 Z"/></g>
<g><path style="opacity:1" fill="#834fa5" d="M 377.5,110.5 C 382.201,114.201 386.201,118.534 389.5,123.5C 387.301,121.898 385.301,120.064 383.5,118C 382.552,117.517 381.552,117.351 380.5,117.5C 379.523,115.179 378.523,112.846 377.5,110.5 Z"/></g>
<g><path style="opacity:1" fill="#844fa3" d="M 161.5,115.5 C 154.996,120.255 147.996,124.255 140.5,127.5C 142.486,125.031 144.986,123.031 148,121.5C 148.333,120.167 148.667,118.833 149,117.5C 149.893,118.081 150.893,118.415 152,118.5C 154.96,116.802 158.127,115.802 161.5,115.5 Z"/></g>
<g><path style="opacity:0.502" fill="#a488b1" d="M 281.5,117.5 C 282.167,117.5 282.833,117.5 283.5,117.5C 283.833,118.167 284.167,118.833 284.5,119.5C 282.973,119.573 281.973,118.906 281.5,117.5 Z"/></g>
<g><path style="opacity:1" fill="#73458e" d="M 283.5,117.5 C 285.795,118.136 287.461,119.469 288.5,121.5C 286.847,121.34 285.514,120.674 284.5,119.5C 284.167,118.833 283.833,118.167 283.5,117.5 Z"/></g>
<g><path style="opacity:1" fill="#7d4aa1" d="M 288.5,121.5 C 291.857,121.216 294.191,122.549 295.5,125.5C 292.669,124.921 290.336,123.588 288.5,121.5 Z"/></g>
<g><path style="opacity:0.812" fill="#9576a9" d="M 295.5,125.5 C 297.027,125.427 298.027,126.094 298.5,127.5C 296.973,127.573 295.973,126.906 295.5,125.5 Z"/></g>
<g><path style="opacity:0.596" fill="#aa81bd" d="M 389.5,123.5 C 390.906,123.973 391.573,124.973 391.5,126.5C 390.094,126.027 389.427,125.027 389.5,123.5 Z"/></g>
<g><path style="opacity:1" fill="#885ba7" d="M 391.5,126.5 C 393.588,128.336 394.921,130.669 395.5,133.5C 392.549,132.191 391.216,129.857 391.5,126.5 Z"/></g>
<g><path style="opacity:1" fill="#7e4c9e" d="M 53.5,118.5 C 52.0116,122.81 50.0116,126.81 47.5,130.5C 46.3634,131.789 45.0301,132.789 43.5,133.5C 45.5961,127.631 48.9295,122.631 53.5,118.5 Z"/></g>
<g><path style="opacity:1" fill="#8b5aa8" d="M 140.5,127.5 C 135.498,131.003 130.165,134.003 124.5,136.5C 125.048,133.916 126.715,132.916 129.5,133.5C 129.5,132.5 129.5,131.5 129.5,130.5C 132.915,128.729 136.582,127.729 140.5,127.5 Z"/></g>
<g><path style="opacity:1" fill="#754898" d="M 298.5,127.5 C 301.394,127.556 304.061,128.39 306.5,130C 308.063,130.759 309.063,131.926 309.5,133.5C 305.345,132.258 301.678,130.258 298.5,127.5 Z"/></g>
<g><path style="opacity:1" fill="#7e5399" d="M 309.5,133.5 C 312.857,133.216 315.191,134.549 316.5,137.5C 313.669,136.921 311.336,135.588 309.5,133.5 Z"/></g>
<g><path style="opacity:0.859" fill="#84629b" d="M 124.5,136.5 C 123.341,138.25 121.674,139.25 119.5,139.5C 120.3,137.259 121.966,136.259 124.5,136.5 Z"/></g>
<g><path style="opacity:0.788" fill="#9d7ca8" d="M 316.5,137.5 C 318.027,137.427 319.027,138.094 319.5,139.5C 317.973,139.573 316.973,138.906 316.5,137.5 Z"/></g>
<g><path style="opacity:1" fill="#885ba6" d="M 117.5,140.5 C 115.206,142.653 112.54,144.32 109.5,145.5C 108.34,143.797 109.007,143.131 111.5,143.5C 111.5,142.5 111.5,141.5 111.5,140.5C 113.5,140.5 115.5,140.5 117.5,140.5 Z"/></g>
<g><path style="opacity:1" fill="#82549a" d="M 323.5,141.5 C 326.857,141.216 329.191,142.549 330.5,145.5C 327.669,144.921 325.336,143.588 323.5,141.5 Z"/></g>
<g><path style="opacity:0.78" fill="#aa8bbb" d="M 397.5,138.5 C 398.924,140.515 399.59,142.848 399.5,145.5C 398.076,143.485 397.41,141.152 397.5,138.5 Z"/></g>
<g><path style="opacity:1" fill="#7f5397" d="M 43.5,133.5 C 43.1409,138.17 41.8076,142.503 39.5,146.5C 40.0569,141.835 41.3902,137.502 43.5,133.5 Z"/></g>
<g><path style="opacity:1" fill="#7d4d9f" d="M 330.5,145.5 C 333.857,145.216 336.191,146.549 337.5,149.5C 334.669,148.921 332.336,147.588 330.5,145.5 Z"/></g>
<g><path style="opacity:1" fill="#824ca4" d="M 337.5,149.5 C 340.639,149.599 342.973,150.932 344.5,153.5C 341.669,152.921 339.336,151.588 337.5,149.5 Z"/></g>
<g><path style="opacity:1" fill="#8452a5" d="M 108.5,145.5 C 103.709,149.068 98.7089,152.402 93.5,155.5C 93.5,153.833 93.5,152.167 93.5,150.5C 95.1992,150.66 96.8659,150.494 98.5,150C 101.471,147.681 104.804,146.181 108.5,145.5 Z"/></g>
<g><path style="opacity:0.004" fill="#fefffe" d="M 431.5,154.5 C 432.833,155.167 432.833,155.167 431.5,154.5 Z"/></g>
<g><path style="opacity:0.004" fill="#fefffe" d="M 428.5,156.5 C 429.833,157.167 429.833,157.167 428.5,156.5 Z"/></g>
<g><path style="opacity:1" fill="#682398" d="M 92.5,155.5 C 91.5052,203.095 91.1719,250.761 91.5,298.5C 90.8334,274.836 90.5,251.002 90.5,227C 90.5002,202.824 91.1669,178.991 92.5,155.5 Z"/></g>
<g><path style="opacity:1" fill="#6e1fa4" d="M 47.5,130.5 C 45.2284,136.438 43.0617,142.438 41,148.5C 40.1754,202.208 40.3421,255.874 41.5,309.5C 40.8333,309.5 40.1667,309.5 39.5,309.5C 39.5,309.167 39.5,308.833 39.5,308.5C 39.5,254.5 39.5,200.5 39.5,146.5C 41.8076,142.503 43.1409,138.17 43.5,133.5C 45.0301,132.789 46.3634,131.789 47.5,130.5 Z"/></g>
<g><path style="opacity:1" fill="#7c3fa6" d="M 395.5,133.5 C 396.537,134.93 397.204,136.597 397.5,138.5C 397.41,141.152 398.076,143.485 399.5,145.5C 400.252,148.747 400.752,152.081 401,155.5C 401.832,204.002 401.665,252.335 400.5,300.5C 399.549,301.919 399.216,303.585 399.5,305.5C 399.167,305.5 398.833,305.5 398.5,305.5C 398.667,252.832 398.5,200.166 398,147.5C 396.458,142.955 395.624,138.289 395.5,133.5 Z"/></g>
<g><path style="opacity:0.004" fill="#fefffe" d="M 435.5,179.5 C 436.833,180.167 436.833,180.167 435.5,179.5 Z"/></g>
<g><path style="opacity:1" fill="#8755a8" d="M 39.5,146.5 C 39.5,200.5 39.5,254.5 39.5,308.5C 38.6787,305.359 38.1787,302.025 38,298.5C 37.3333,251.167 37.3333,203.833 38,156.5C 38.1787,152.975 38.6787,149.641 39.5,146.5 Z"/></g>
<g><path style="opacity:1" fill="#692298" d="M 346.5,154.5 C 347.117,154.611 347.617,154.944 348,155.5C 348.832,203.668 348.665,251.668 347.5,299.5C 347.824,251.124 347.49,202.791 346.5,154.5 Z"/></g>
<g><path style="opacity:0.694" fill="#6e5880" d="M 92.5,155.5 C 92.8333,155.5 93.1667,155.5 93.5,155.5C 92.1667,203.5 92.1667,251.5 93.5,299.5C 92.8333,299.167 92.1667,298.833 91.5,298.5C 91.1719,250.761 91.5052,203.095 92.5,155.5 Z"/></g>
<g><path style="opacity:0.004" fill="#fefffe" d="M 11.5,245.5 C 12.8333,246.167 12.8333,246.167 11.5,245.5 Z"/></g>
<g><path style="opacity:0.743" fill="#593f68" d="M 344.5,153.5 C 345.492,153.328 346.158,153.662 346.5,154.5C 347.49,202.791 347.824,251.124 347.5,299.5C 346.833,299.5 346.167,299.5 345.5,299.5C 346.647,252.189 346.814,204.856 346,157.5C 345.209,156.255 344.709,154.922 344.5,153.5 Z"/></g>
<g><path style="opacity:1" fill="#8f6ca8" d="M 93.5,299.5 C 95.1911,300.864 96.8577,302.197 98.5,303.5C 95.4535,303.817 93.7868,302.484 93.5,299.5 Z"/></g>
<g><path style="opacity:1" fill="#7b5297" d="M 345.5,299.5 C 345.213,302.484 343.546,303.817 340.5,303.5C 342.142,302.197 343.809,300.864 345.5,299.5 Z"/></g>
<g><path style="opacity:1" fill="#7a4b9d" d="M 340.5,303.5 C 339.264,306.621 336.931,307.955 333.5,307.5C 335.663,305.917 337.996,304.584 340.5,303.5 Z"/></g>
<g><path style="opacity:0.075" fill="#c3afd0" d="M 400.5,300.5 C 400.917,304.817 400.25,308.817 398.5,312.5C 398.674,310.139 399.007,307.806 399.5,305.5C 399.216,303.585 399.549,301.919 400.5,300.5 Z"/></g>
<g><path style="opacity:0.847" fill="#8a62a7" d="M 333.5,307.5 C 332.514,309.408 330.848,310.408 328.5,310.5C 329.659,308.75 331.326,307.75 333.5,307.5 Z"/></g>
<g><path style="opacity:1" fill="#966fac" d="M 99.5,303.5 C 106.534,307.012 113.201,311.012 119.5,315.5C 113.164,313.27 107.164,310.27 101.5,306.5C 100.388,305.735 99.7214,304.735 99.5,303.5 Z"/></g>
<g><path style="opacity:1" fill="#7d4b9a" d="M 328.5,310.5 C 326.614,313.948 323.614,315.614 319.5,315.5C 322.008,313.076 325.008,311.41 328.5,310.5 Z"/></g>
<g><path style="opacity:0.8" fill="#885ea3" d="M 319.5,315.5 C 317.973,318.068 315.639,319.401 312.5,319.5C 314.336,317.412 316.669,316.079 319.5,315.5 Z"/></g>
<g><path style="opacity:1" fill="#8957a7" d="M 39.5,309.5 C 40.1667,309.5 40.8333,309.5 41.5,309.5C 42.9919,315.139 44.9919,320.639 47.5,326C 51.5893,329.895 54.5893,334.395 56.5,339.5C 47.4983,331.473 41.8316,321.473 39.5,309.5 Z"/></g>
<g><path style="opacity:1" fill="#83519f" d="M 398.5,305.5 C 398.833,305.5 399.167,305.5 399.5,305.5C 399.007,307.806 398.674,310.139 398.5,312.5C 397.801,317.272 396.134,321.605 393.5,325.5C 394.876,318.662 396.543,311.996 398.5,305.5 Z"/></g>
<g><path style="opacity:1" fill="#8b57a9" d="M 120.5,315.5 C 124.054,316.769 127.054,318.769 129.5,321.5C 124.937,321.667 121.937,319.667 120.5,315.5 Z"/></g>
<g><path style="opacity:1" fill="#886a9a" d="M 130.5,321.5 C 131.71,321.932 132.71,322.599 133.5,323.5C 131.821,323.715 130.821,323.048 130.5,321.5 Z"/></g>
<g><path style="opacity:0.8" fill="#8865a4" d="M 133.5,323.5 C 136.331,324.079 138.664,325.412 140.5,327.5C 137.318,327.416 134.985,326.083 133.5,323.5 Z"/></g>
<g><path style="opacity:0.733" fill="#a385b1" d="M 393.5,325.5 C 393.573,327.027 392.906,328.027 391.5,328.5C 391.285,326.821 391.952,325.821 393.5,325.5 Z"/></g>
<g><path style="opacity:1" fill="#7d479d" d="M 312.5,319.5 C 306.995,325.981 299.995,329.981 291.5,331.5C 298.004,326.745 305.004,322.745 312.5,319.5 Z"/></g>
<g><path style="opacity:1" fill="#8456a2" d="M 140.5,327.5 C 143.331,328.079 145.664,329.412 147.5,331.5C 145.139,331.326 142.806,330.993 140.5,330.5C 140.5,329.5 140.5,328.5 140.5,327.5 Z"/></g>
<g><path style="opacity:0.827" fill="#8b64a4" d="M 291.5,331.5 C 290.652,333.093 289.319,334.26 287.5,335C 286.552,335.483 285.552,335.649 284.5,335.5C 286.336,333.412 288.669,332.079 291.5,331.5 Z"/></g>
<g><path style="opacity:1" fill="#7e5499" d="M 148.5,331.5 C 150.537,332.846 152.537,334.18 154.5,335.5C 151.031,336.113 149.031,334.779 148.5,331.5 Z"/></g>
<g><path style="opacity:1" fill="#814ba5" d="M 389.5,331.5 C 387.577,334.603 385.41,337.603 383,340.5C 380.931,342.085 378.764,343.419 376.5,344.5C 376.5,343.167 376.5,341.833 376.5,340.5C 377.833,340.5 379.167,340.5 380.5,340.5C 380.676,336.735 382.676,334.735 386.5,334.5C 386.5,333.5 386.5,332.5 386.5,331.5C 387.5,331.5 388.5,331.5 389.5,331.5 Z"/></g>
<g><path style="opacity:1" fill="#8253a1" d="M 284.5,335.5 C 281.102,340.2 276.435,342.867 270.5,343.5C 274.833,340.331 279.5,337.664 284.5,335.5 Z"/></g>
<g><path style="opacity:1" fill="#7f47a5" d="M 58.5,341.5 C 62.5895,341.588 65.2562,343.588 66.5,347.5C 63.4669,345.984 60.8003,343.984 58.5,341.5 Z"/></g>
<g><path style="opacity:1" fill="#7e49a0" d="M 154.5,335.5 C 160.668,338.08 166.335,341.414 171.5,345.5C 164.276,344.68 158.609,341.346 154.5,335.5 Z"/></g>
<g><path style="opacity:0.827" fill="#85629f" d="M 270.5,343.5 C 269.514,345.408 267.848,346.408 265.5,346.5C 266.659,344.75 268.326,343.75 270.5,343.5 Z"/></g>
<g><path style="opacity:1" fill="#8546ad" d="M 375.5,345.5 C 372.35,348.579 368.683,350.913 364.5,352.5C 365.452,350.888 365.786,349.388 365.5,348C 368.755,346.847 372.088,346.013 375.5,345.5 Z"/></g>
<g><path style="opacity:1" fill="#79459c" d="M 265.5,346.5 C 264.555,348.779 262.888,350.446 260.5,351.5C 256.793,352.875 253.127,354.208 249.5,355.5C 254.502,351.997 259.835,348.997 265.5,346.5 Z"/></g>
<g><path style="opacity:0.455" fill="#af8abd" d="M 76.5,353.5 C 78.0269,353.427 79.0269,354.094 79.5,355.5C 77.9731,355.573 76.9731,354.906 76.5,353.5 Z"/></g>
<g><path style="opacity:1" fill="#7b41a0" d="M 66.5,347.5 C 67.8734,347.343 69.2068,347.51 70.5,348C 73.256,350.865 76.5893,352.698 80.5,353.5C 81.8262,354.642 82.8262,355.976 83.5,357.5C 81.847,357.34 80.5137,356.674 79.5,355.5C 79.0269,354.094 78.0269,353.427 76.5,353.5C 72.827,352 69.4937,350 66.5,347.5 Z"/></g>
<g><path style="opacity:1" fill="#855a9e" d="M 175.5,347.5 C 182.996,350.745 189.996,354.745 196.5,359.5C 189.766,357.299 183.432,354.299 177.5,350.5C 176.575,349.643 175.908,348.643 175.5,347.5 Z"/></g>
<g><path style="opacity:0.812" fill="#8a64a8" d="M 249.5,355.5 C 248.514,357.408 246.848,358.408 244.5,358.5C 245.659,356.75 247.326,355.75 249.5,355.5 Z"/></g>
<g><path style="opacity:0.004" fill="#fefffe" d="M 13.5,358.5 C 14.8333,359.167 14.8333,359.167 13.5,358.5 Z"/></g>
<g><path style="opacity:0.404" fill="#b78ecb" d="M 83.5,357.5 C 84.1667,357.5 84.8333,357.5 85.5,357.5C 85.8333,358.167 86.1667,358.833 86.5,359.5C 84.9731,359.573 83.9731,358.906 83.5,357.5 Z"/></g>
<g><path style="opacity:1" fill="#793ca2" d="M 85.5,357.5 C 89.8815,357.579 93.2149,359.412 95.5,363C 99.699,363.743 102.699,365.91 104.5,369.5C 100.345,368.258 96.678,366.258 93.5,363.5C 93.0269,362.094 92.0269,361.427 90.5,361.5C 88.847,361.34 87.5137,360.674 86.5,359.5C 86.1667,358.833 85.8333,358.167 85.5,357.5 Z"/></g>
<g><path style="opacity:1" fill="#7d4ba0" d="M 364.5,352.5 C 358.366,356.404 352.032,360.071 345.5,363.5C 346.502,361.989 347.169,360.322 347.5,358.5C 353.303,356.759 358.97,354.759 364.5,352.5 Z"/></g>
<g><path style="opacity:0.827" fill="#a088b0" d="M 197.5,359.5 C 198.71,359.932 199.71,360.599 200.5,361.5C 198.821,361.715 197.821,361.048 197.5,359.5 Z"/></g>
<g><path style="opacity:0.004" fill="#fefffe" d="M 431.5,360.5 C 432.833,361.167 432.833,361.167 431.5,360.5 Z"/></g>
<g><path style="opacity:0.549" fill="#a68dc1" d="M 90.5,361.5 C 92.0269,361.427 93.0269,362.094 93.5,363.5C 91.9731,363.573 90.9731,362.906 90.5,361.5 Z"/></g>
<g><path style="opacity:1" fill="#784999" d="M 244.5,358.5 C 244.489,360.017 243.823,361.184 242.5,362C 238.771,364.23 234.771,365.73 230.5,366.5C 234.833,363.331 239.5,360.664 244.5,358.5 Z"/></g>
<g><path style="opacity:1" fill="#895ea2" d="M 345.5,363.5 C 342.451,365.863 339.118,367.863 335.5,369.5C 335.5,368.833 335.5,368.167 335.5,367.5C 338.34,365.085 341.673,363.752 345.5,363.5 Z"/></g>
<g><path style="opacity:1" fill="#8759a2" d="M 200.5,361.5 C 205.833,364.5 211.167,367.5 216.5,370.5C 217.919,371.451 219.585,371.784 221.5,371.5C 218.555,373.063 215.888,372.563 213.5,370C 209.951,368.345 206.285,367.178 202.5,366.5C 202.169,364.678 201.502,363.011 200.5,361.5 Z"/></g>
<g><path style="opacity:1" fill="#885b9f" d="M 104.5,369.5 C 107.639,369.599 109.973,370.932 111.5,373.5C 108.669,372.921 106.336,371.588 104.5,369.5 Z"/></g>
<g><path style="opacity:1" fill="#9b79ae" d="M 228.5,367.5 C 226.948,370.112 224.614,371.445 221.5,371.5C 219.585,371.784 217.919,371.451 216.5,370.5C 220.861,370.709 224.861,369.709 228.5,367.5 Z"/></g>
<g><path style="opacity:1" fill="#773ba2" d="M 335.5,367.5 C 335.5,368.167 335.5,368.833 335.5,369.5C 330.632,372.434 325.632,375.1 320.5,377.5C 320.5,376.5 320.5,375.5 320.5,374.5C 321.873,374.657 323.207,374.49 324.5,374C 325.509,371.828 327.176,370.662 329.5,370.5C 329.351,369.448 329.517,368.448 330,367.5C 331.626,367.854 333.459,367.854 335.5,367.5 Z"/></g>
<g><path style="opacity:0.004" fill="#fefffe" d="M 356.5,371.5 C 357.833,372.167 357.833,372.167 356.5,371.5 Z"/></g>
<g><path style="opacity:1" fill="#7b41a3" d="M 111.5,373.5 C 115.434,374.788 119.434,376.121 123.5,377.5C 124.953,379.185 126.286,380.851 127.5,382.5C 121.835,380.003 116.502,377.003 111.5,373.5 Z"/></g>
<g><path style="opacity:1" fill="#8451a2" d="M 127.5,382.5 C 130.285,381.916 131.952,382.916 132.5,385.5C 130.326,385.25 128.659,384.25 127.5,382.5 Z"/></g>
<g><path style="opacity:1" fill="#83519e" d="M 132.5,385.5 C 134.989,385.241 136.656,386.241 137.5,388.5C 135.566,387.89 133.899,386.89 132.5,385.5 Z"/></g>
<g><path style="opacity:1" fill="#9061aa" d="M 320.5,377.5 C 314.138,381.831 307.471,385.831 300.5,389.5C 300.5,388.5 300.5,387.5 300.5,386.5C 307.156,383.506 313.822,380.506 320.5,377.5 Z"/></g>
<g><path style="opacity:1" fill="#7733a5" d="M 137.5,388.5 C 140.417,389.291 143.25,389.291 146,388.5C 147.067,389.191 148.234,389.691 149.5,390C 148.663,391.011 148.33,392.178 148.5,393.5C 147.833,393.5 147.167,393.5 146.5,393.5C 143.24,392.226 140.24,390.56 137.5,388.5 Z"/></g>
<g><path style="opacity:0.804" fill="#9168ac" d="M 298.5,390.5 C 295.322,393.258 291.655,395.258 287.5,396.5C 288.863,394.627 290.53,392.961 292.5,391.5C 294.396,390.534 296.396,390.201 298.5,390.5 Z"/></g>
<g><path style="opacity:0.51" fill="#b099c5" d="M 146.5,393.5 C 147.167,393.5 147.833,393.5 148.5,393.5C 148.833,394.167 149.167,394.833 149.5,395.5C 147.973,395.573 146.973,394.906 146.5,393.5 Z"/></g>
<g><path style="opacity:1" fill="#9166ac" d="M 287.5,396.5 C 285.664,398.588 283.331,399.921 280.5,400.5C 281.895,397.688 284.229,396.354 287.5,396.5 Z"/></g>
<g><path style="opacity:1" fill="#75399d" d="M 148.5,393.5 C 150.764,394.219 153.097,394.552 155.5,394.5C 155.48,396.143 156.147,397.476 157.5,398.5C 159.763,399.65 162.096,400.65 164.5,401.5C 165.826,402.642 166.826,403.976 167.5,405.5C 165.847,405.34 164.514,404.674 163.5,403.5C 163.027,402.094 162.027,401.427 160.5,401.5C 156.665,399.75 152.999,397.75 149.5,395.5C 149.167,394.833 148.833,394.167 148.5,393.5 Z"/></g>
<g><path style="opacity:0.816" fill="#8c659e" d="M 280.5,400.5 C 279.341,402.25 277.674,403.25 275.5,403.5C 276.3,401.259 277.966,400.259 280.5,400.5 Z"/></g>
<g><path style="opacity:0.51" fill="#af91c3" d="M 160.5,401.5 C 162.027,401.427 163.027,402.094 163.5,403.5C 161.973,403.573 160.973,402.906 160.5,401.5 Z"/></g>
<g><path style="opacity:1" fill="#9070b1" d="M 275.5,403.5 C 274.101,404.89 272.434,405.89 270.5,406.5C 271.344,404.241 273.011,403.241 275.5,403.5 Z"/></g>
<g><path style="opacity:1" fill="#8257a2" d="M 167.5,405.5 C 170.857,405.216 173.191,406.549 174.5,409.5C 171.669,408.921 169.336,407.588 167.5,405.5 Z"/></g>
<g><path style="opacity:1" fill="#8955a4" d="M 174.5,409.5 C 177.285,408.916 178.952,409.916 179.5,412.5C 177.326,412.25 175.659,411.25 174.5,409.5 Z"/></g>
<g><path style="opacity:1" fill="#956ca8" d="M 268.5,407.5 C 266.664,409.588 264.331,410.921 261.5,411.5C 263.027,408.932 265.361,407.599 268.5,407.5 Z"/></g>
<g><path style="opacity:1" fill="#8d5fa8" d="M 179.5,412.5 C 181.989,412.241 183.656,413.241 184.5,415.5C 182.566,414.89 180.899,413.89 179.5,412.5 Z"/></g>
<g><path style="opacity:0.004" fill="#fefffe" d="M 169.5,414.5 C 170.833,415.167 170.833,415.167 169.5,414.5 Z"/></g>
<g><path style="opacity:1" fill="#8c5ea8" d="M 261.5,411.5 C 258.534,413.988 255.201,415.988 251.5,417.5C 251.5,416.5 251.5,415.5 251.5,414.5C 254.548,412.707 257.882,411.707 261.5,411.5 Z"/></g>
<g><path style="opacity:1" fill="#743e9d" d="M 184.5,415.5 C 186.547,415.511 188.547,415.844 190.5,416.5C 193.949,418.547 197.282,420.547 200.5,422.5C 199.833,422.5 199.167,422.5 198.5,422.5C 195.982,421.736 193.649,420.736 191.5,419.5C 191.027,418.094 190.027,417.427 188.5,417.5C 186.847,417.34 185.514,416.674 184.5,415.5 Z"/></g>
<g><path style="opacity:0.341" fill="#c4a7d2" d="M 188.5,417.5 C 190.027,417.427 191.027,418.094 191.5,419.5C 189.973,419.573 188.973,418.906 188.5,417.5 Z"/></g>
<g><path style="opacity:0.612" fill="#9982aa" d="M 246.5,419.5 C 245.71,420.401 244.71,421.068 243.5,421.5C 243.821,419.952 244.821,419.285 246.5,419.5 Z"/></g>
<g><path style="opacity:1" fill="#966fb0" d="M 242.5,421.5 C 238.622,424.013 234.289,425.346 229.5,425.5C 230.167,424.833 230.833,424.167 231.5,423.5C 235.015,422.081 238.681,421.414 242.5,421.5 Z"/></g>
<g><path style="opacity:0.812" fill="#af8dbd" d="M 198.5,422.5 C 199.167,422.5 199.833,422.5 200.5,422.5C 202.117,423.038 203.784,423.371 205.5,423.5C 207.167,424.167 208.833,424.833 210.5,425.5C 206.098,425.692 202.098,424.692 198.5,422.5 Z"/></g>
<g><path style="opacity:1" fill="#764b91" d="M 205.5,423.5 C 214.167,424.833 222.833,424.833 231.5,423.5C 230.833,424.167 230.167,424.833 229.5,425.5C 223.167,426.833 216.833,426.833 210.5,425.5C 208.833,424.833 207.167,424.167 205.5,423.5 Z"/></g>
<g><path style="opacity:0.004" fill="#fefffe" d="M 87.5,430.5 C 88.8333,431.167 88.8333,431.167 87.5,430.5 Z"/></g>
<g><path style="opacity:0.004" fill="#fefffe" d="M 295.5,438.5 C 296.833,439.167 296.833,439.167 295.5,438.5 Z"/></g>
<g><path style="opacity:0.004" fill="#fefffe" d="M 324.5,439.5 C 325.833,440.167 325.833,440.167 324.5,439.5 Z"/></g>
</svg>
